<?xml version="1.0" encoding="utf-8"?>
<!-- Generator: Adobe Illustrator 16.0.0, SVG Export Plug-In . SVG Version: 6.00 Build 0)  -->
<!DOCTYPE svg PUBLIC "-//W3C//DTD SVG 1.1 Tiny//EN" "http://www.w3.org/Graphics/SVG/1.1/DTD/svg11-tiny.dtd">
<svg version="1.1" baseProfile="tiny" id="Layer_1" xmlns="http://www.w3.org/2000/svg" xmlns:xlink="http://www.w3.org/1999/xlink"
	 x="0px" y="0px" width="24px" height="24px" viewBox="0 0 24 24" xml:space="preserve">
<g>
	<path d="M15.997,13.865c0.174,0,0.328-0.113,0.381-0.278l0.641-2.006l1.679-1.238c0.138-0.103,0.196-0.28,0.144-0.444L18.2,7.893
		l0.641-2.005c0.052-0.164-0.005-0.342-0.143-0.444l-1.679-1.239l-0.641-2.005c-0.053-0.165-0.207-0.278-0.381-0.278h-2.073
		l-1.677-1.237c-0.141-0.104-0.333-0.104-0.475,0l-1.679,1.237h-2.07c-0.174,0-0.328,0.113-0.381,0.278L7.002,4.204l-1.68,1.239
		C5.184,5.546,5.126,5.725,5.179,5.888l0.643,2.005L5.179,9.898c-0.052,0.163,0.005,0.342,0.144,0.444l1.68,1.238l0.641,2.006
		c0.053,0.165,0.207,0.278,0.381,0.278h2.07l1.679,1.236c0.071,0.052,0.154,0.078,0.237,0.078s0.167-0.026,0.237-0.078l1.677-1.236
		H15.997z M13.556,13.143l-1.546,1.14l-1.548-1.14c-0.069-0.051-0.152-0.078-0.237-0.078H8.315l-0.591-1.851
		c-0.025-0.08-0.076-0.15-0.144-0.2L6.028,9.869l0.594-1.854c0.025-0.079,0.025-0.165,0-0.244L6.028,5.917l1.553-1.146
		c0.068-0.051,0.118-0.12,0.144-0.2l0.591-1.85h1.909c0.085,0,0.168-0.027,0.237-0.078l1.548-1.141l1.546,1.141
		c0.069,0.051,0.152,0.078,0.237,0.078h1.912l0.591,1.85c0.025,0.08,0.076,0.149,0.143,0.2l1.553,1.146l-0.592,1.854
		c-0.025,0.079-0.025,0.165,0,0.244l0.592,1.854l-1.552,1.145c-0.068,0.051-0.118,0.12-0.144,0.2l-0.591,1.851h-1.912
		C13.708,13.064,13.625,13.092,13.556,13.143z"/>
	<path d="M9.922,15.596c-0.205-0.076-0.438,0.025-0.516,0.231l-2.285,5.985l-0.775-2.294c-0.039-0.115-0.128-0.207-0.243-0.248
		c-0.114-0.043-0.241-0.028-0.345,0.035L3.7,20.57l2.012-5.657c0.074-0.208-0.035-0.437-0.243-0.511
		c-0.208-0.074-0.437,0.035-0.511,0.243l-2.392,6.727C2.51,21.531,2.56,21.71,2.692,21.816c0.132,0.107,0.316,0.119,0.461,0.03
		l2.596-1.597l0.97,2.872c0.054,0.16,0.203,0.269,0.371,0.272c0.002,0,0.005,0,0.008,0c0.166,0,0.314-0.103,0.374-0.258l2.682-7.024
		C10.232,15.906,10.128,15.675,9.922,15.596z"/>
	<path d="M21.434,21.372l-2.392-6.727c-0.074-0.208-0.305-0.317-0.511-0.243c-0.208,0.074-0.317,0.303-0.243,0.511l2.012,5.658
		l-2.058-1.266c-0.104-0.063-0.23-0.077-0.346-0.035c-0.114,0.041-0.204,0.133-0.243,0.248l-0.775,2.294l-2.34-6.13
		c-0.079-0.206-0.309-0.31-0.516-0.231c-0.207,0.079-0.31,0.311-0.231,0.517l2.736,7.169c0.059,0.155,0.208,0.258,0.374,0.258
		c0.002,0,0.005,0,0.008,0c0.168-0.004,0.317-0.112,0.371-0.272l0.97-2.872l2.597,1.597c0.145,0.089,0.329,0.077,0.461-0.03
		C21.44,21.71,21.49,21.531,21.434,21.372z"/>
</g>
</svg>
