<svg id="Layer_5" enable-background="new 0 0 64 64" height="512" viewBox="0 0 64 64" width="512" xmlns="http://www.w3.org/2000/svg"><path d="m51 24v2c4.411 0 8-3.589 8-8s-3.589-8-8-8-8 3.589-8 8h2c0-3.309 2.691-6 6-6s6 2.691 6 6-2.691 6-6 6z"/><path d="m43.345 33h-.67l-8.289 6.028 16.7-16.7c.589-.589.914-1.373.914-2.207 0-1.721-1.4-3.121-3.121-3.121-.834 0-1.618.325-2.207.914l-7.944 7.944c-.487-1.092-1.578-1.858-2.849-1.858-.36 0-.707.072-1.037.188-.4-1.263-1.569-2.188-2.963-2.188-.808 0-1.565.31-2.147.865-.485-1.096-1.579-1.865-2.853-1.865-.834 0-1.618.325-2.207.914l-9.02 9.02c-1.038 1.038-1.713 2.351-1.955 3.798l-.631 3.788-2.566 2.566-2.5-2.5-7.414 7.414 2.679 2.679c-.173.413-.265.86-.265 1.321 0 .912.355 1.77 1 2.414l9.586 9.586c.645.645 1.502 1 2.414 1s1.77-.355 2.414-1l5.586-5.586c.645-.645 1-1.502 1-2.414 0-.713-.223-1.389-.626-1.96l1.107-1.107 4.274-.712c1.076-.179 2.109-.615 2.989-1.26l12.763-9.359c.934-.685 1.493-1.788 1.493-2.947 0-2.015-1.64-3.655-3.655-3.655zm-35.345 8.414 1.086 1.086-4.586 4.586-1.086-1.086zm7 19.172-9.586-9.586c-.263-.263-.414-.628-.414-1s.151-.737.414-1l5.293-5.293.293-.293c.263-.263.628-.414 1-.414s.737.151 1 .414l9.586 9.586c.263.263.414.628.414 1s-.151.737-.414 1l-.086.086-6.964-6.964c-.724-.724-1.685-1.122-2.707-1.122-2.112 0-3.829 1.717-3.829 3.829 0 1.022.398 1.984 1.122 2.707l6.964 6.964-.086.086c-.526.526-1.474.526-2 0zm6.086-4.086-2.586 2.586-6.964-6.964c-.346-.346-.536-.805-.536-1.293 0-1.009.82-1.829 1.829-1.829.488 0 .947.19 1.293.536zm23.238-18.511-12.763 9.359c-.629.461-1.367.772-2.135.9l-4.906.818-1.52 1.52-8.586-8.586c-.353-.354-.781-.601-1.24-.76l1.759-1.759.737-4.419c.172-1.034.655-1.972 1.396-2.713l9.02-9.02c.212-.212.493-.329.793-.329.618 0 1.121.503 1.121 1.121 0 .3-.117.581-.328.793l-7.379 7.379 1.414 1.414 7.379-7.379 2-2c.212-.211.493-.328.793-.328.618 0 1.121.503 1.121 1.121 0 .3-.117.581-.328.793l-9.379 9.379 1.414 1.414 9.379-9.379 1-1c.212-.211.493-.328.793-.328.618 0 1.121.503 1.121 1.121 0 .3-.117.581-.328.793l-10.379 10.379 1.414 1.414 10.379-10.379 10-10c.212-.211.493-.328.793-.328.618 0 1.121.503 1.121 1.121 0 .3-.117.581-.328.793l-18.84 18.84c-.687.687-.687 1.805 0 2.492.616.617 1.577.692 2.283.179l10.21-7.425h.02c.913 0 1.655.742 1.655 1.655 0 .525-.253 1.024-.676 1.334z"/><path d="m56 40c-.033 0-.065.005-.098.005l-.805-10.741c4.602-1.68 7.903-6.088 7.903-11.264 0-6.617-5.383-12-12-12-4.744 0-8.841 2.774-10.788 6.779l-8.391-3.227c.114-.5.179-1.018.179-1.552 0-3.86-3.14-7-7-7s-7 3.14-7 7 3.14 7 7 7c2.618 0 4.902-1.447 6.102-3.581l8.385 3.225c-.312 1.066-.487 2.19-.487 3.356h2c0-5.514 4.486-10 10-10s10 4.486 10 10-4.486 10-10 10v2c.729 0 1.439-.076 2.132-.201l.788 10.516c-2.847.888-4.92 3.549-4.92 6.685 0 3.86 3.14 7 7 7s7-3.14 7-7-3.14-7-7-7zm-31-27c-2.757 0-5-2.243-5-5s2.243-5 5-5 5 2.243 5 5-2.243 5-5 5zm31 39c-2.757 0-5-2.243-5-5s2.243-5 5-5 5 2.243 5 5-2.243 5-5 5z"/><path d="m56 44c-1.654 0-3 1.346-3 3s1.346 3 3 3 3-1.346 3-3-1.346-3-3-3zm0 4c-.551 0-1-.449-1-1s.449-1 1-1 1 .449 1 1-.449 1-1 1z"/><path d="m25 5c-1.654 0-3 1.346-3 3s1.346 3 3 3 3-1.346 3-3-1.346-3-3-3zm0 4c-.551 0-1-.449-1-1s.449-1 1-1 1 .449 1 1-.449 1-1 1z"/></svg>