<svg height="512pt" viewBox="-20 0 512 512.00034" width="512pt" xmlns="http://www.w3.org/2000/svg"><g fill="#231f20"><path d="m166.660156 55.117188c-38.640625 46.910156-30.664062 141.972656 19.679688 229.171874 51.84375 89.792969 147.320312 161.277344 214.890625 122.28125 27.753906-16.023437 43.699219-48.324218 45.386719-91.5.109374-2.875.160156-5.804687.144531-8.777343-.550781-107.910157-84.726563-237.417969-176.757813-271.71875-37.796875-14.089844-77.460937-11.023438-103.34375 20.542969zm-3.453125 38.558593c104.089844 45.222657 189.523438 193.191407 176.636719 305.953125-106.867188-24.308594-208.957031-201.457031-176.636719-305.953125zm268.523438 212.695313c.273437 53.714844-24.265625 99.121094-76.980469 95.449218 14.125-119.503906-75.320312-274.578124-185.992188-322.148437 23.390626-47.90625 74.726563-46.0625 121.152344-18.941406 77.726563 45.40625 141.363282 155.675781 141.820313 245.640625zm0 0"/><path d="m208.585938.0859375c-12.582032 1.8750005-24.34375 5.9335935-34.964844 12.0625005-.007813.003906-.015625.007812-.023438.011718-.007812.003906-.015625.007813-.023437.011719l-116.496094 67.261719c-73.898437 42.667968-74.984375 171.28125-9.386719 284.902344 65.257813 113.023437 177.375 177.078124 251.425782 134.324218.222656-.128906 116.304687-67.152344 116.527343-67.277344 34.316407-19.8125 54.507813-59.503906 56.851563-111.757812.1875-4.148438-3.023438-7.660156-7.171875-7.847656-4.167969-.207032-7.65625 3.027344-7.84375 7.171875-2.105469 46.949219-19.632813 82.257812-49.351563 99.414062-79.820312 46.085938-183.625-46.96875-230.882812-128.824219-72.996094-126.429687-55.828125-261.261718 33.554687-274.585937 4.105469-.613281 6.9375-4.4375 6.328125-8.542969-.613281-4.105468-4.453125-6.941406-8.542968-6.3242185zm83.015624 485.5546875c-65.078124 37.570313-169.007812-21.640625-230.890624-128.820313-61.910157-107.230468-61.167969-226.8125 3.882812-264.371093l70.882812-40.925781c-73.347656 130.871093 74.96875 391.261718 227.015626 393.1875zm0 0"/><path d="m456.398438 284.980469c.398437 3.867187 3.660156 6.746093 7.46875 6.746093.257812 0 .515624-.011718.777343-.039062 4.128907-.421875 7.132813-4.113281 6.707031-8.242188-9.160156-89.273437-62.546874-182.121093-129.761718-236.382812-31.359375-25.320312-64.425782-41.382812-95.613282-46.453125-4.105468-.6679688-7.960937 2.113281-8.625 6.210937-.667968 4.097657 2.113282 7.957032 6.210938 8.625 94.34375 15.339844 199.683594 141.367188 212.835938 269.535157zm0 0"/></g></svg>